<?xml version="1.0" encoding="UTF-8" standalone="no"?>
<!DOCTYPE svg PUBLIC "-//W3C//DTD SVG 1.1//EN" "http://www.w3.org/Graphics/SVG/1.1/DTD/svg11.dtd">
<svg width="100%" height="100%" viewBox="0 0 814 825" version="1.1" xmlns="http://www.w3.org/2000/svg" xmlns:xlink="http://www.w3.org/1999/xlink" xml:space="preserve" xmlns:serif="http://www.serif.com/" style="fill-rule:evenodd;clip-rule:evenodd;stroke-linejoin:round;stroke-miterlimit:2;">
    <g transform="matrix(1,0,0,1,-93.393281,-87.642873)">
        <g>
            <g transform="matrix(37.833873,0,0,37.833873,63.678719,58.429127)">
                <path d="M9.936,17.454C10.064,17.497 10.19,17.549 10.312,17.61L11.418,18.162C11.88,18.393 12.068,18.956 11.838,19.418C11.607,19.88 11.044,20.068 10.582,19.838L9.476,19.285C9.176,19.136 8.824,19.136 8.524,19.285L4.865,21.115C4.597,21.25 4.3,21.32 4,21.32C2.938,21.32 2.064,20.446 2.064,19.383L2.064,19.381L2.064,11.321C2.064,10.805 2.483,10.385 3,10.385C3.517,10.385 3.936,10.805 3.936,11.321L3.936,19.381L3.936,19.383C3.936,19.419 3.965,19.447 4,19.447C4.01,19.447 4.02,19.445 4.029,19.441L7.688,17.611C7.81,17.549 7.936,17.497 8.064,17.454L8.064,11.321C8.064,10.805 8.483,10.385 9,10.385C9.517,10.385 9.936,10.805 9.936,11.321L9.936,17.454Z" style="fill:rgb(252,76,2);"/>
            </g>
            <g transform="matrix(37.833873,0,0,37.833873,63.678719,58.429127)">
                <path d="M14.064,6.547C13.936,6.504 13.81,6.452 13.688,6.39L12.4,5.747C11.938,5.516 11.75,4.953 11.981,4.491C12.212,4.029 12.775,3.841 13.237,4.072L14.524,4.716C14.824,4.865 15.176,4.865 15.476,4.716L19.135,2.886C19.403,2.751 19.7,2.681 20,2.681C21.062,2.681 21.936,3.555 21.936,4.618L21.936,4.619L21.936,12C21.936,12.517 21.517,12.936 21,12.936C20.483,12.936 20.064,12.517 20.064,12L20.064,4.619L20.064,4.618C20.064,4.582 20.035,4.554 20,4.554C19.99,4.554 19.98,4.556 19.971,4.56L16.312,6.39C16.19,6.452 16.064,6.504 15.936,6.547L15.936,12C15.936,12.517 15.517,12.936 15,12.936C14.483,12.936 14.064,12.517 14.064,12L14.064,6.547Z" style="fill:rgb(252,76,2);"/>
            </g>
            <g transform="matrix(42.333873,0,0,42.333873,-17.821281,-12.070873)">
                <path d="M17.163,18.837L15,18.837C14.538,18.837 14.163,18.462 14.163,18C14.163,17.538 14.538,17.163 15,17.163L17.163,17.163L17.163,15C17.163,14.538 17.538,14.163 18,14.163C18.462,14.163 18.837,14.538 18.837,15L18.837,17.163L21,17.163C21.462,17.163 21.837,17.538 21.837,18C21.837,18.462 21.462,18.837 21,18.837L18.837,18.837L18.837,21C18.837,21.462 18.462,21.837 18,21.837C17.538,21.837 17.163,21.462 17.163,21L17.163,18.837Z" style="fill:rgb(252,76,2);"/>
            </g>
            <g transform="matrix(14.4875,0,0,14.4875,99.834948,65.10954)">
                <path d="M5.732,4.555L6.095,3.884C6.871,2.451 8.375,1.555 10.004,1.555L13.997,1.555C15.628,1.555 17.133,2.453 17.908,3.888L18.268,4.555L20,4.555C22.438,4.555 24.445,6.562 24.445,9L24.445,18C24.445,20.438 22.438,22.445 20,22.445L4,22.445C1.562,22.445 -0.445,20.438 -0.445,18L-0.445,9C-0.445,6.562 1.562,4.555 4,4.555L5.732,4.555ZM4.445,9.445L4.445,17.555L19.555,17.555L19.555,9.445L18.003,9.445C16.372,9.445 14.867,8.547 14.092,7.112L13.732,6.445L10.269,6.445L9.906,7.116C9.13,8.549 7.626,9.445 5.997,9.445L4.445,9.445Z" style="fill:rgb(252,76,2);"/>
            </g>
            <g transform="matrix(7.49994,0,0,7.49994,183.685666,153.460319)">
                <circle cx="12" cy="13" r="6.564" style="fill:rgb(252,76,2);"/>
            </g>
        </g>
    </g>
</svg>
